# xmcd
#
# Track frame offsets: 
#        150
#        19301
#        35042
#        51729
#        69463
#        89986
#        107572
#        124179
#        140549
#        157484
#        178256
#        192977
#
# Disc length: 2789 seconds
#
# Revision: 0
# Processed by: cddbd v1.5.2PL0 Copyright (c) Steve Scherf et al.
# Submitted via: ExactAudioCopyFreeDBPlugin 1.0
#
DISCID=c40ae30c
DTITLE=Kelly Auty - Falling For You
DYEAR=2013
DGENRE=Blues
TTITLE0=Everything To Me
TTITLE1=Two Steps
TTITLE2=Falling
TTITLE3=Baby's Beck and Call
TTITLE4=Remember
TTITLE5=All we Got
TTITLE6=Every Little Tear
TTITLE7=You Can't Stop Love
TTITLE8=Sunday Feeling
TTITLE9=Come Dance
TTITLE10=Place In Your Heart
TTITLE11=Don't Wanna Be
EXTD=
EXTT0=
EXTT1=
EXTT2=
EXTT3=
EXTT4=
EXTT5=
EXTT6=
EXTT7=
EXTT8=
EXTT9=
EXTT10=
EXTT11=
PLAYORDER=
